HIERARCHY
ROOT root
{
	OFFSET	0	13.1	24.9
	CHANNELS 6  Xposition Yposition Zposition Xrotation Yrotation Zrotation
	JOINT spine_1
	{
		OFFSET	0	9.99999	0
		CHANNELS 3  Xrotation Yrotation Zrotation
		JOINT spine_2
		{
			OFFSET	0	112	-10
			CHANNELS 3  Xrotation Yrotation Zrotation
			JOINT spine_3
			{
				OFFSET	0	206.5	19.3
				CHANNELS 3  Xrotation Yrotation Zrotation
				JOINT spine_4
				{
					OFFSET	0	110.4	14.6
					CHANNELS 3  Xrotation Yrotation Zrotation
					JOINT neck_1
					{
						OFFSET	0	71.8	-50.3
						CHANNELS 3  Xrotation Yrotation Zrotation
						JOINT neck_2
						{
							OFFSET	0	86.2	-25.8
							CHANNELS 3  Xrotation Yrotation Zrotation
							JOINT head_ee
							{
								OFFSET	0	179.8	-8.7
								CHANNELS 3  Xrotation Yrotation Zrotation
								End Site
								{
									OFFSET	1	0	0
								}
							}
						}
					}
					JOINT left_clavicle
					{
						OFFSET	-43.2	22.4	-70.8
						CHANNELS 3  Xrotation Yrotation Zrotation
						JOINT left_shoulder
						{
							OFFSET	-93.9	-5.79999	48.7
							CHANNELS 3  Xrotation Yrotation Zrotation
							JOINT left_elbow
							{
								OFFSET	-291.4	-30.8	15.2
								CHANNELS 3  Xrotation Yrotation Zrotation
								JOINT left_lowarm_twist
								{
									OFFSET	-110.7	-3.89999	13.6
									CHANNELS 3  Xrotation Yrotation Zrotation
									JOINT left_hand
									{
										OFFSET	-110.7	-3.89999	13.6
										CHANNELS 3  Xrotation Yrotation Zrotation
										JOINT left_ee
										{
											OFFSET	-80.8	-5.10001	12.1
											CHANNELS 3  Xrotation Yrotation Zrotation
											End Site
											{
												OFFSET	1	0	0
											}
										}
									}
								}
							}
						}
					}
					JOINT right_clavicle
					{
						OFFSET	43.2	22.4	-70.8
						CHANNELS 3  Xrotation Yrotation Zrotation
						JOINT right_shoulder
						{
							OFFSET	93.9	-5.79999	48.7
							CHANNELS 3  Xrotation Yrotation Zrotation
							JOINT right_elbow
							{
								OFFSET	291.4	-30.8	15.2
								CHANNELS 3  Xrotation Yrotation Zrotation
								JOINT right_lowarm_twist
								{
									OFFSET	110.7	-3.89999	13.6
									CHANNELS 3  Xrotation Yrotation Zrotation
									JOINT right_hand
									{
										OFFSET	110.7	-3.89999	13.6
										CHANNELS 3  Xrotation Yrotation Zrotation
										JOINT right_ee
										{
											OFFSET	80.8	-5.10001	12.1
											CHANNELS 3  Xrotation Yrotation Zrotation
											End Site
											{
												OFFSET	1	0	0
											}
										}
									}
								}
							}
						}
					}
				}
			}
		}
	}
	JOINT left_hip
	{
		OFFSET	-82.8	-127.5	0.300001
		CHANNELS 3  Xrotation Yrotation Zrotation
		JOINT left_knee
		{
			OFFSET	-28.2	-396.7	2.2
			CHANNELS 3  Xrotation Yrotation Zrotation
			JOINT left_ankle
			{
				OFFSET	-11.7	-411.3	35.4
				CHANNELS 3  Xrotation Yrotation Zrotation
				JOINT left_toes
				{
					OFFSET	0	-60	-88.6
					CHANNELS 3  Xrotation Yrotation Zrotation
					JOINT left_foot_ee
					{
						OFFSET	-22.5	-16.5	-42.2
						CHANNELS 3  Xrotation Yrotation Zrotation
						End Site
						{
							OFFSET	1	0	0
						}
					}
				}
			}
		}
	}
	JOINT right_hip
	{
		OFFSET	82.8	-127.5	0.300001
		CHANNELS 3  Xrotation Yrotation Zrotation
		JOINT right_knee
		{
			OFFSET	28.2	-396.7	2.2
			CHANNELS 3  Xrotation Yrotation Zrotation
			JOINT right_ankle
			{
				OFFSET	11.7	-411.3	35.4
				CHANNELS 3  Xrotation Yrotation Zrotation
				JOINT right_toes
				{
					OFFSET	0	-60	-88.6
					CHANNELS 3  Xrotation Yrotation Zrotation
					JOINT right_foot_ee
					{
						OFFSET	22.5	-16.5	-42.2
						CHANNELS 3  Xrotation Yrotation Zrotation
						End Site
						{
							OFFSET	1	0	0
						}
					}
				}
			}
		}
	}
}
MOTION
Frames: 10
Frame Time: 0.02
3177.02 653.055 -1669.29 -2.77916213248 67.9026945039 -0.816443852296 -3.1456 0.898602 3.68727 -3.13828 0.662319 3.73688 -3.08372 -0.341703 3.77965 -3.10356 0.25907 3.7862 -4.66627 7.17142 -8.72087 -4.27567 19.7276 -7.79518 -0.0 0.0 -0.0 -0.0729715 21.5589 2.40141 -16.9377 -29.5683 63.2898 0.35945 -10.0965 0.031753 10.2007 0.246193 -1.27808 -0.170762 25.1325 8.99787 -0.0 0.0 -0.0 11.3638 26.7375 -21.8507 3.88865 23.5253 -47.6401 3.50896 60.0735 -2.02933 -12.1334 0.581908 -1.43517 -2.18713 8.10253 18.5228 0.0 0.0 0.0 29.0411 21.4929 -0.700159 5.75352 -0.279314 -0.838112 -13.5598 20.4245 2.073 -10.4465 0.0 0.0 -0.0 0.0 -0.0 -15.6265 29.0122 3.13903 -15.0662 -0.321769 -2.28304 31.9146 -8.19536 4.09245 -3.74352 0.0 0.0 0.0 0.0 0.0 
3126.86637263 658.839 -1669.72300749 -0.793244889539 65.8737743044 -1.69548424508 -3.52508 0.995192 3.76593 -3.51751 0.75372 3.82151 -3.4543 -0.300706 3.88342 -3.4752 0.315906 3.88221 -1.99659 6.96481 -8.01414 -1.5339 18.9035 -7.60343 -0.0 0.0 -0.0 0.432457 21.1032 3.07585 -16.1097 -30.1379 63.5988 0.377834 -10.6015 0.0350557 10.4745 0.249645 -1.31288 -0.350975 25.1423 7.97488 -0.0 0.0 -0.0 11.2105 27.6247 -21.3996 1.80164 22.6708 -47.7968 3.48293 59.8889 -2.00678 -13.5525 0.669515 -1.59423 -1.895 6.33892 15.6675 0.0 0.0 0.0 29.3427 22.1886 0.106133 -3.49426 0.128016 0.520898 -10.9595 19.3169 1.66441 -6.58942 0.0 0.0 -0.0 0.0 -0.0 -16.9927 28.9092 3.38213 -17.7606 -0.315572 -2.69636 32.3114 -9.93711 4.14038 -2.39828 0.0 0.0 0.0 0.0 0.0 
3098.79813175 656.282 -1668.37938325 -0.244074578511 65.8587752651 -2.14713756488 -3.62376 0.990685 3.80752 -3.61601 0.746582 3.86273 -3.55227 -0.325403 3.92065 -3.57359 0.297385 3.92287 -0.0984107 6.83706 -7.3225 0.387561 18.1481 -7.22357 -0.0 0.0 -0.0 0.683095 20.7095 3.39979 -15.4036 -30.4618 63.7376 0.390825 -10.9573 0.0374853 10.6375 0.251622 -1.3336 -0.375145 25.1938 7.85717 -0.0 0.0 -0.0 11.2863 27.7412 -21.5565 0.453141 22.3038 -48.2162 3.46122 59.7335 -1.98802 -14.4063 0.724122 -1.68889 -1.82381 5.74343 14.9016 0.0 0.0 0.0 29.8442 22.187 -0.482859 -10.2089 0.283855 1.53895 -9.2811 18.5674 1.40315 -4.07181 0.0 0.0 -0.0 0.0 -0.0 -18.4461 28.5308 3.96152 -19.7256 -0.298803 -2.99737 32.2131 -11.0071 4.13636 -1.50531 0.0 0.0 0.0 0.0 0.0 
3075.04206608 651.665 -1678.79558963 1.85519898025 67.0035599915 -4.3810732831 -3.69476 0.978195 3.8281 -3.68691 0.73281 3.88247 -3.62359 -0.348945 3.93551 -3.64509 0.276477 3.94125 1.24603 6.70199 -6.76076 1.73189 17.446 -6.85371 -0.0 0.0 -0.0 0.874469 20.0221 3.61714 -14.8818 -30.9393 62.2638 0.452271 -12.6283 0.0500447 10.6762 0.252082 -1.33852 -0.389733 25.203 7.77786 -0.0 0.0 -0.0 11.3414 27.803 -21.6734 -0.925917 21.8617 -48.7501 3.30385 58.5611 -1.85291 -15.004 0.763184 -1.75466 -1.75182 5.09385 14.1077 0.0 0.0 0.0 30.0151 22.0845 -1.16831 -14.8389 0.321403 2.24817 -8.13358 18.0384 1.22574 -2.3141 0.0 0.0 -0.0 0.0 -0.0 -19.3412 28.1469 4.21028 -21.0793 -0.281248 -3.20435 31.7084 -12.1222 4.09151 -1.06712 0.0 0.0 0.0 0.0 0.0 
3034.7646641 659.346 -1687.05500335 2.49258719842 66.6149588169 -4.85656603291 -3.84149 0.942945 3.71529 -3.83409 0.704794 3.76766 -3.77457 -0.354824 3.81649 -3.79481 0.251918 3.82465 2.46712 6.66835 -5.80599 2.91628 16.5697 -5.98923 -0.0 0.0 -0.0 1.08738 19.0776 3.8522 -13.2571 -31.8558 60.4602 0.554659 -15.3637 0.0748145 10.7315 0.252735 -1.34556 -0.402698 25.2149 7.7088 -0.0 0.0 -0.0 11.4407 27.9709 -21.8772 -3.64005 21.4732 -50.0182 3.0284 56.3015 -1.62073 -15.7543 0.813195 -1.83666 -1.62116 4.26734 12.8302 0.0 0.0 0.0 30.1752 21.945 -1.73262 -20.3552 0.291247 3.09368 -6.76741 17.5115 1.0162 -0.216264 0.0 0.0 -0.0 0.0 -0.0 -19.8991 28.0535 3.07475 -22.6864 -0.254066 -3.44945 30.9675 -13.6346 4.02579 -0.604528 0.0 0.0 0.0 0.0 0.0 
3015.7996121 656.792 -1690.01888001 2.9432268688 68.0493320462 -4.88531083372 -3.80079 0.830695 3.46322 -3.79433 0.608778 3.50898 -3.74582 -0.374576 3.5416 -3.76327 0.18909 3.55631 2.69523 6.68457 -5.4582 3.12515 16.2986 -5.63152 -0.0 0.0 -0.0 1.16358 18.7644 3.94081 -11.6844 -32.4574 60.1002 0.648675 -17.8141 0.101663 10.6451 0.251712 -1.33457 -0.405397 25.2352 7.70131 -0.0 0.0 -0.0 11.4686 28.0581 -21.9294 -4.56583 21.4401 -50.5205 2.70128 53.2195 -1.35346 -15.5588 0.800058 -1.81535 -1.5037 3.70736 11.7694 0.0 0.0 0.0 29.8026 21.7315 -1.68022 -21.769 0.270426 3.30962 -6.02196 17.2301 0.902471 0.437684 -0.0 -0.0 -0.0 0.0 -0.0 -18.7653 28.2087 2.19537 -23.1811 -0.244316 -3.52473 30.6812 -14.9699 4.0085 -0.777492 0.0 0.0 0.0 0.0 0.0 
3015.82229877 656.792 -1690.19457024 2.93529468936 67.9869716182 -4.87675679836 -3.80079 0.830695 3.46322 -3.79433 0.608778 3.50898 -3.74582 -0.374576 3.5416 -3.76327 0.18909 3.55631 2.69523 6.68457 -5.4582 3.12515 16.2986 -5.63152 -0.0 0.0 -0.0 1.16358 18.7644 3.94081 -11.6844 -32.4574 60.1002 0.648675 -17.8141 0.101663 10.6451 0.251712 -1.33457 -0.405397 25.2352 7.70131 -0.0 0.0 -0.0 11.4686 28.0581 -21.9294 -4.56583 21.4401 -50.5205 2.70128 53.2195 -1.35346 -15.5588 0.800058 -1.81535 -1.5037 3.70736 11.7694 0.0 0.0 0.0 29.8026 21.7315 -1.68022 -21.769 0.270426 3.30962 -6.02196 17.2301 0.902471 0.437684 -0.0 -0.0 -0.0 0.0 -0.0 -18.7653 28.2087 2.19537 -23.1811 -0.244316 -3.52473 30.6812 -14.9699 4.0085 -0.777492 0.0 0.0 0.0 0.0 0.0 
3015.84109893 656.792 -1690.33903298 2.92880608435 67.935688308 -4.86975670271 -3.80079 0.830695 3.46322 -3.79433 0.608778 3.50898 -3.74582 -0.374576 3.5416 -3.76327 0.18909 3.55631 2.69523 6.68457 -5.4582 3.12515 16.2986 -5.63152 -0.0 0.0 -0.0 1.16358 18.7644 3.94081 -11.6844 -32.4574 60.1002 0.648675 -17.8141 0.101663 10.6451 0.251712 -1.33457 -0.405397 25.2352 7.70131 -0.0 0.0 -0.0 11.4686 28.0581 -21.9294 -4.56583 21.4401 -50.5205 2.70128 53.2195 -1.35346 -15.5588 0.800058 -1.81535 -1.5037 3.70736 11.7694 0.0 0.0 0.0 29.8026 21.7315 -1.68022 -21.769 0.270426 3.30962 -6.02196 17.2301 0.902471 0.437684 -0.0 -0.0 -0.0 0.0 -0.0 -18.7653 28.2087 2.19537 -23.1811 -0.244316 -3.52473 30.6812 -14.9699 4.0085 -0.777492 0.0 0.0 0.0 0.0 0.0 
2994.71633149 671.822 -1694.97214329 4.77373872703 71.0305824113 -5.95586634652 -3.87829 0.493081 3.09165 -3.87302 0.295449 3.11673 -3.84861 -0.574483 3.07758 -3.86182 -0.0814758 3.12963 1.66068 6.88363 -4.94578 2.03275 16.251 -4.88738 -0.0 0.0 -0.0 1.25355 17.6764 3.99 -9.71687 -33.1894 59.7324 0.721714 -19.6728 0.125136 10.6112 0.251307 -1.33026 -0.215954 25.6861 8.94668 -0.0 0.0 -0.0 11.4666 27.9873 -21.9336 -5.89429 21.2837 -51.2439 2.12769 46.5 -0.914215 -15.4883 0.79534 -1.80766 -1.40265 3.17834 10.8391 0.0 0.0 0.0 28.0215 21.5863 -1.64365 -22.657 0.254626 3.44496 -3.92617 16.5996 0.585245 0.929739 -0.0 -0.0 -0.0 0.0 -0.0 -12.9894 27.1129 1.36415 -30.4286 -0.0274103 -4.61511 30.5846 -16.9192 4.02164 -0.868999 0.0 0.0 0.0 0.0 0.0 
2994.63510967 671.822 -1694.3888409 4.8185538697 71.2132243688 -6.00322911717 -3.87829 0.493081 3.09165 -3.87302 0.295449 3.11673 -3.84861 -0.574483 3.07758 -3.86182 -0.0814758 3.12963 1.66068 6.88363 -4.94578 2.03275 16.251 -4.88738 -0.0 0.0 -0.0 1.25355 17.6764 3.99 -9.71687 -33.1894 59.7324 0.721714 -19.6728 0.125136 10.6112 0.251307 -1.33026 -0.215954 25.6861 8.94668 -0.0 0.0 -0.0 11.4666 27.9873 -21.9336 -5.89429 21.2837 -51.2439 2.12769 46.5 -0.914215 -15.4883 0.79534 -1.80766 -1.40265 3.17834 10.8391 0.0 0.0 0.0 28.0215 21.5863 -1.64365 -22.657 0.254626 3.44496 -3.92617 16.5996 0.585245 0.929739 -0.0 -0.0 -0.0 0.0 -0.0 -12.9894 27.1129 1.36415 -30.4286 -0.0274103 -4.61511 30.5846 -16.9192 4.02164 -0.868999 0.0 0.0 0.0 0.0 0.0 
